# MagicaVoxel @ Ephtracy

# group
g factory_black_red

# material
mtllib factory_black_red.mtl
usemtl palette

# normals
vn -1 0 0
vn 1 0 0
vn 0 0 1
vn 0 0 -1
vn 0 -1 0
vn 0 1 0

# texcoords
vt 0.306641 0.5
vt 0.958984 0.5
vt 0.978516 0.5
vt 0.982422 0.5
vt 0.986328 0.5
vt 0.994141 0.5

# verts
v -10.5 0 5
v -10.5 0 4
v -10.5 0 3
v -10.5 0 2
v -10.5 0 -2
v -10.5 0 -3
v -10.5 0 -4
v -10.5 0 -5
v -10.5 4 2
v -10.5 4 -2
v -10.5 6 2
v -10.5 6 -2
v -10.5 9 1
v -10.5 9 -1
v -10.5 11 1
v -10.5 11 -1
v -10.5 13 5
v -10.5 13 4
v -10.5 13 3
v -10.5 13 2
v -10.5 13 -2
v -10.5 13 -3
v -10.5 13 -4
v -10.5 13 -5
v -10.5 14 5
v -10.5 14 -5
v -10.5 15 5
v -10.5 15 -5
v -9.5 13 4
v -9.5 13 3
v -9.5 13 2
v -9.5 13 -2
v -9.5 13 -3
v -9.5 13 -4
v -9.5 14 4
v -9.5 14 -4
v -8.5 0 2
v -8.5 0 -2
v -8.5 4 2
v -8.5 4 -2
v -5.5 15 2
v -5.5 15 -2
v -5.5 16 2
v -5.5 16 -2
v -1.5 15 2
v -1.5 15 -2
v -1.5 16 2
v -1.5 16 -2
v 1.5 15 2
v 1.5 15 -2
v 1.5 16 2
v 1.5 16 -2
v 5.5 15 2
v 5.5 15 -2
v 5.5 16 2
v 5.5 16 -2
v -3.5 15 2
v -3.5 15 -2
v -3.5 16 2
v -3.5 16 -2
v 0.5 15 2
v 0.5 15 -2
v 0.5 16 2
v 0.5 16 -2
v 3.5 15 2
v 3.5 15 -2
v 3.5 16 2
v 3.5 16 -2
v 7.5 15 2
v 7.5 15 -2
v 7.5 16 2
v 7.5 16 -2
v 9.5 13 4
v 9.5 13 1
v 9.5 13 -1
v 9.5 13 -4
v 9.5 14 4
v 9.5 14 -4
v 10.5 0 5
v 10.5 0 4
v 10.5 0 1
v 10.5 0 -1
v 10.5 0 -4
v 10.5 0 -5
v 10.5 13 5
v 10.5 13 4
v 10.5 13 1
v 10.5 13 -1
v 10.5 13 -4
v 10.5 13 -5
v 10.5 14 5
v 10.5 14 -5
v 10.5 15 5
v 10.5 15 -5
v -10.5 0 5
v -10.5 13 5
v -10.5 14 5
v -10.5 15 5
v -9.5 0 5
v -9.5 13 5
v -6.5 0 5
v -6.5 13 5
v -5.5 0 5
v -5.5 13 5
v -2.5 0 5
v -2.5 13 5
v -1.5 0 5
v -1.5 13 5
v 1.5 0 5
v 1.5 13 5
v 2.5 0 5
v 2.5 13 5
v 5.5 0 5
v 5.5 13 5
v 6.5 0 5
v 6.5 13 5
v 9.5 0 5
v 9.5 13 5
v 10.5 0 5
v 10.5 13 5
v 10.5 14 5
v 10.5 15 5
v -9.5 13 4
v -9.5 14 4
v -6.5 13 4
v -5.5 13 4
v -2.5 13 4
v -1.5 13 4
v 1.5 13 4
v 2.5 13 4
v 5.5 13 4
v 6.5 13 4
v 9.5 13 4
v 9.5 14 4
v -5.5 15 2
v -5.5 16 2
v -3.5 15 2
v -3.5 16 2
v -1.5 15 2
v -1.5 16 2
v 0.5 15 2
v 0.5 16 2
v 1.5 15 2
v 1.5 16 2
v 3.5 15 2
v 3.5 16 2
v 5.5 15 2
v 5.5 16 2
v 7.5 15 2
v 7.5 16 2
v -10.5 0 -2
v -10.5 4 -2
v -9.5 0 -2
v -9.5 4 -2
v -8.5 0 -2
v -8.5 4 -2
v -10.5 0 2
v -10.5 4 2
v -9.5 0 2
v -9.5 4 2
v -8.5 0 2
v -8.5 4 2
v -5.5 15 -2
v -5.5 16 -2
v -3.5 15 -2
v -3.5 16 -2
v -1.5 15 -2
v -1.5 16 -2
v 0.5 15 -2
v 0.5 16 -2
v 1.5 15 -2
v 1.5 16 -2
v 3.5 15 -2
v 3.5 16 -2
v 5.5 15 -2
v 5.5 16 -2
v 7.5 15 -2
v 7.5 16 -2
v -9.5 13 -4
v -9.5 14 -4
v -6.5 13 -4
v -5.5 13 -4
v -2.5 13 -4
v -1.5 13 -4
v 1.5 13 -4
v 2.5 13 -4
v 5.5 13 -4
v 6.5 13 -4
v 9.5 13 -4
v 9.5 14 -4
v -10.5 0 -5
v -10.5 13 -5
v -10.5 14 -5
v -10.5 15 -5
v -9.5 0 -5
v -9.5 13 -5
v -6.5 0 -5
v -6.5 13 -5
v -5.5 0 -5
v -5.5 13 -5
v -2.5 0 -5
v -2.5 13 -5
v -1.5 0 -5
v -1.5 13 -5
v 1.5 0 -5
v 1.5 13 -5
v 2.5 0 -5
v 2.5 13 -5
v 5.5 0 -5
v 5.5 13 -5
v 6.5 0 -5
v 6.5 13 -5
v 9.5 0 -5
v 9.5 13 -5
v 10.5 0 -5
v 10.5 13 -5
v 10.5 14 -5
v 10.5 15 -5
v -10.5 0 5
v -9.5 0 5
v -6.5 0 5
v -5.5 0 5
v -2.5 0 5
v -1.5 0 5
v 1.5 0 5
v 2.5 0 5
v 5.5 0 5
v 6.5 0 5
v 9.5 0 5
v 10.5 0 5
v -10.5 0 4
v -9.5 0 4
v -7.5 0 4
v -6.5 0 4
v -5.5 0 4
v -2.5 0 4
v -1.5 0 4
v 1.5 0 4
v 2.5 0 4
v 5.5 0 4
v 6.5 0 4
v 9.5 0 4
v 10.5 0 4
v -10.5 0 3
v -9.5 0 3
v -8.5 0 3
v -10.5 0 2
v -9.5 0 2
v -8.5 0 2
v 9.5 0 1
v 10.5 0 1
v 9.5 0 -1
v 10.5 0 -1
v -10.5 0 -2
v -9.5 0 -2
v -8.5 0 -2
v -10.5 0 -3
v -9.5 0 -3
v -8.5 0 -3
v -10.5 0 -4
v -9.5 0 -4
v -7.5 0 -4
v -6.5 0 -4
v -5.5 0 -4
v -2.5 0 -4
v -1.5 0 -4
v 1.5 0 -4
v 2.5 0 -4
v 5.5 0 -4
v 6.5 0 -4
v 9.5 0 -4
v 10.5 0 -4
v -10.5 0 -5
v -9.5 0 -5
v -6.5 0 -5
v -5.5 0 -5
v -2.5 0 -5
v -1.5 0 -5
v 1.5 0 -5
v 2.5 0 -5
v 5.5 0 -5
v 6.5 0 -5
v 9.5 0 -5
v 10.5 0 -5
v -10.5 4 2
v -9.5 4 2
v -8.5 4 2
v -10.5 4 -2
v -9.5 4 -2
v -8.5 4 -2
v -10.5 14 5
v 10.5 14 5
v -9.5 14 4
v 9.5 14 4
v -9.5 14 -4
v 9.5 14 -4
v -10.5 14 -5
v 10.5 14 -5
v -10.5 13 5
v -9.5 13 5
v -6.5 13 5
v -5.5 13 5
v -2.5 13 5
v -1.5 13 5
v 1.5 13 5
v 2.5 13 5
v 5.5 13 5
v 6.5 13 5
v 9.5 13 5
v 10.5 13 5
v -10.5 13 4
v -9.5 13 4
v -6.5 13 4
v -5.5 13 4
v -2.5 13 4
v -1.5 13 4
v 1.5 13 4
v 2.5 13 4
v 5.5 13 4
v 6.5 13 4
v 9.5 13 4
v 10.5 13 4
v -10.5 13 3
v -9.5 13 3
v -10.5 13 2
v -9.5 13 2
v 9.5 13 1
v 10.5 13 1
v 9.5 13 -1
v 10.5 13 -1
v -10.5 13 -2
v -9.5 13 -2
v -10.5 13 -3
v -9.5 13 -3
v -10.5 13 -4
v -9.5 13 -4
v -6.5 13 -4
v -5.5 13 -4
v -2.5 13 -4
v -1.5 13 -4
v 1.5 13 -4
v 2.5 13 -4
v 5.5 13 -4
v 6.5 13 -4
v 9.5 13 -4
v 10.5 13 -4
v -10.5 13 -5
v -9.5 13 -5
v -6.5 13 -5
v -5.5 13 -5
v -2.5 13 -5
v -1.5 13 -5
v 1.5 13 -5
v 2.5 13 -5
v 5.5 13 -5
v 6.5 13 -5
v 9.5 13 -5
v 10.5 13 -5
v -10.5 15 5
v 10.5 15 5
v -5.5 15 2
v -3.5 15 2
v -1.5 15 2
v 0.5 15 2
v 1.5 15 2
v 3.5 15 2
v 5.5 15 2
v 7.5 15 2
v -5.5 15 -2
v -3.5 15 -2
v -1.5 15 -2
v 0.5 15 -2
v 1.5 15 -2
v 3.5 15 -2
v 5.5 15 -2
v 7.5 15 -2
v -10.5 15 -5
v 10.5 15 -5
v -5.5 16 2
v -3.5 16 2
v -1.5 16 2
v 0.5 16 2
v 1.5 16 2
v 3.5 16 2
v 5.5 16 2
v 7.5 16 2
v -5.5 16 -2
v -3.5 16 -2
v -1.5 16 -2
v 0.5 16 -2
v 1.5 16 -2
v 3.5 16 -2
v 5.5 16 -2
v 7.5 16 -2

# faces
f 9/4/1 4/4/1 3/4/1
f 10/4/1 6/4/1 5/4/1
f 11/4/1 9/4/1 3/4/1
f 11/4/1 10/4/1 9/4/1
f 12/4/1 6/4/1 10/4/1
f 12/4/1 10/4/1 11/4/1
f 13/3/1 12/3/1 11/3/1
f 14/3/1 12/3/1 13/3/1
f 15/3/1 13/3/1 11/3/1
f 15/4/1 14/4/1 13/4/1
f 16/3/1 12/3/1 14/3/1
f 16/4/1 14/4/1 15/4/1
f 17/4/1 2/4/1 1/4/1
f 18/3/1 3/3/1 2/3/1
f 18/4/1 2/4/1 17/4/1
f 19/4/1 11/4/1 3/4/1
f 19/3/1 3/3/1 18/3/1
f 20/3/1 15/3/1 11/3/1
f 20/4/1 11/4/1 19/4/1
f 20/3/1 16/3/1 15/3/1
f 21/3/1 12/3/1 16/3/1
f 21/3/1 16/3/1 20/3/1
f 21/4/1 6/4/1 12/4/1
f 22/3/1 7/3/1 6/3/1
f 22/4/1 6/4/1 21/4/1
f 23/4/1 8/4/1 7/4/1
f 23/3/1 7/3/1 22/3/1
f 24/4/1 8/4/1 23/4/1
f 27/5/1 26/5/1 25/5/1
f 28/5/1 26/5/1 27/5/1
f 35/2/1 30/2/1 29/2/1
f 35/2/1 34/2/1 33/2/1
f 35/2/1 33/2/1 32/2/1
f 35/2/1 32/2/1 31/2/1
f 35/2/1 31/2/1 30/2/1
f 36/2/1 34/2/1 35/2/1
f 39/3/1 38/3/1 37/3/1
f 40/3/1 38/3/1 39/3/1
f 43/6/1 42/6/1 41/6/1
f 44/6/1 42/6/1 43/6/1
f 47/6/1 46/6/1 45/6/1
f 48/6/1 46/6/1 47/6/1
f 51/6/1 50/6/1 49/6/1
f 52/6/1 50/6/1 51/6/1
f 55/6/1 54/6/1 53/6/1
f 56/6/1 54/6/1 55/6/1
f 57/6/2 58/6/2 59/6/2
f 59/6/2 58/6/2 60/6/2
f 61/6/2 62/6/2 63/6/2
f 63/6/2 62/6/2 64/6/2
f 65/6/2 66/6/2 67/6/2
f 67/6/2 66/6/2 68/6/2
f 69/6/2 70/6/2 71/6/2
f 71/6/2 70/6/2 72/6/2
f 73/2/2 74/2/2 77/2/2
f 75/2/2 76/2/2 77/2/2
f 74/2/2 75/2/2 77/2/2
f 77/2/2 76/2/2 78/2/2
f 79/4/2 80/4/2 85/4/2
f 80/3/2 81/3/2 86/3/2
f 85/4/2 80/4/2 86/4/2
f 81/4/2 82/4/2 87/4/2
f 86/3/2 81/3/2 87/3/2
f 82/3/2 83/3/2 88/3/2
f 87/4/2 82/4/2 88/4/2
f 83/4/2 84/4/2 89/4/2
f 88/3/2 83/3/2 89/3/2
f 89/4/2 84/4/2 90/4/2
f 91/5/2 92/5/2 93/5/2
f 93/5/2 92/5/2 94/5/2
f 99/4/3 96/4/3 95/4/3
f 100/4/3 96/4/3 99/4/3
f 101/3/3 100/3/3 99/3/3
f 102/3/3 100/3/3 101/3/3
f 103/4/3 102/4/3 101/4/3
f 104/4/3 102/4/3 103/4/3
f 105/3/3 104/3/3 103/3/3
f 106/3/3 104/3/3 105/3/3
f 107/4/3 106/4/3 105/4/3
f 108/4/3 106/4/3 107/4/3
f 109/3/3 108/3/3 107/3/3
f 110/3/3 108/3/3 109/3/3
f 111/4/3 110/4/3 109/4/3
f 112/4/3 110/4/3 111/4/3
f 113/3/3 112/3/3 111/3/3
f 114/3/3 112/3/3 113/3/3
f 115/4/3 114/4/3 113/4/3
f 116/4/3 114/4/3 115/4/3
f 117/3/3 116/3/3 115/3/3
f 118/3/3 116/3/3 117/3/3
f 119/4/3 118/4/3 117/4/3
f 120/4/3 118/4/3 119/4/3
f 121/5/3 98/5/3 97/5/3
f 122/5/3 98/5/3 121/5/3
f 125/2/3 124/2/3 123/2/3
f 126/2/3 124/2/3 125/2/3
f 127/2/3 124/2/3 126/2/3
f 128/2/3 124/2/3 127/2/3
f 129/2/3 124/2/3 128/2/3
f 130/2/3 124/2/3 129/2/3
f 131/2/3 124/2/3 130/2/3
f 132/2/3 124/2/3 131/2/3
f 133/2/3 124/2/3 132/2/3
f 134/2/3 124/2/3 133/2/3
f 137/6/3 136/6/3 135/6/3
f 138/6/3 136/6/3 137/6/3
f 141/6/3 140/6/3 139/6/3
f 142/6/3 140/6/3 141/6/3
f 145/6/3 144/6/3 143/6/3
f 146/6/3 144/6/3 145/6/3
f 149/6/3 148/6/3 147/6/3
f 150/6/3 148/6/3 149/6/3
f 153/4/3 152/4/3 151/4/3
f 154/4/3 152/4/3 153/4/3
f 155/2/3 154/2/3 153/2/3
f 156/2/3 154/2/3 155/2/3
f 157/4/4 158/4/4 159/4/4
f 159/4/4 158/4/4 160/4/4
f 159/2/4 160/2/4 161/2/4
f 161/2/4 160/2/4 162/2/4
f 163/6/4 164/6/4 165/6/4
f 165/6/4 164/6/4 166/6/4
f 167/6/4 168/6/4 169/6/4
f 169/6/4 168/6/4 170/6/4
f 171/6/4 172/6/4 173/6/4
f 173/6/4 172/6/4 174/6/4
f 175/6/4 176/6/4 177/6/4
f 177/6/4 176/6/4 178/6/4
f 179/2/4 180/2/4 181/2/4
f 181/2/4 180/2/4 182/2/4
f 182/2/4 180/2/4 183/2/4
f 183/2/4 180/2/4 184/2/4
f 184/2/4 180/2/4 185/2/4
f 185/2/4 180/2/4 186/2/4
f 186/2/4 180/2/4 187/2/4
f 187/2/4 180/2/4 188/2/4
f 188/2/4 180/2/4 189/2/4
f 189/2/4 180/2/4 190/2/4
f 191/4/4 192/4/4 195/4/4
f 195/4/4 192/4/4 196/4/4
f 195/3/4 196/3/4 197/3/4
f 197/3/4 196/3/4 198/3/4
f 197/4/4 198/4/4 199/4/4
f 199/4/4 198/4/4 200/4/4
f 199/3/4 200/3/4 201/3/4
f 201/3/4 200/3/4 202/3/4
f 201/4/4 202/4/4 203/4/4
f 203/4/4 202/4/4 204/4/4
f 203/3/4 204/3/4 205/3/4
f 205/3/4 204/3/4 206/3/4
f 205/4/4 206/4/4 207/4/4
f 207/4/4 206/4/4 208/4/4
f 207/3/4 208/3/4 209/3/4
f 209/3/4 208/3/4 210/3/4
f 209/4/4 210/4/4 211/4/4
f 211/4/4 210/4/4 212/4/4
f 211/3/4 212/3/4 213/3/4
f 213/3/4 212/3/4 214/3/4
f 213/4/4 214/4/4 215/4/4
f 215/4/4 214/4/4 216/4/4
f 193/5/4 194/5/4 217/5/4
f 217/5/4 194/5/4 218/5/4
f 231/4/5 220/4/5 219/4/5
f 232/3/5 221/3/5 220/3/5
f 232/4/5 220/4/5 231/4/5
f 233/3/5 221/3/5 232/3/5
f 234/4/5 222/4/5 221/4/5
f 234/3/5 221/3/5 233/3/5
f 235/3/5 223/3/5 222/3/5
f 235/4/5 222/4/5 234/4/5
f 236/4/5 224/4/5 223/4/5
f 236/3/5 223/3/5 235/3/5
f 237/3/5 225/3/5 224/3/5
f 237/4/5 224/4/5 236/4/5
f 238/4/5 226/4/5 225/4/5
f 238/3/5 225/3/5 237/3/5
f 239/3/5 227/3/5 226/3/5
f 239/4/5 226/4/5 238/4/5
f 240/4/5 228/4/5 227/4/5
f 240/3/5 227/3/5 239/3/5
f 241/3/5 229/3/5 228/3/5
f 241/4/5 228/4/5 240/4/5
f 242/4/5 230/4/5 229/4/5
f 242/3/5 229/3/5 241/3/5
f 243/4/5 230/4/5 242/4/5
f 244/3/5 233/3/5 232/3/5
f 244/3/5 232/3/5 231/3/5
f 245/3/5 233/3/5 244/3/5
f 246/3/5 233/3/5 245/3/5
f 247/4/5 245/4/5 244/4/5
f 248/2/5 246/2/5 245/2/5
f 248/4/5 245/4/5 247/4/5
f 249/3/5 233/3/5 246/3/5
f 249/2/5 246/2/5 248/2/5
f 250/4/5 241/4/5 240/4/5
f 250/4/5 234/4/5 233/4/5
f 250/4/5 235/4/5 234/4/5
f 250/4/5 236/4/5 235/4/5
f 250/4/5 242/4/5 241/4/5
f 250/3/5 243/3/5 242/3/5
f 250/4/5 240/4/5 239/4/5
f 250/4/5 239/4/5 238/4/5
f 250/4/5 238/4/5 237/4/5
f 250/4/5 237/4/5 236/4/5
f 251/3/5 243/3/5 250/3/5
f 252/4/5 250/4/5 233/4/5
f 252/4/5 251/4/5 250/4/5
f 253/4/5 251/4/5 252/4/5
f 256/3/5 233/3/5 249/3/5
f 257/4/5 255/4/5 254/4/5
f 258/2/5 256/2/5 255/2/5
f 258/4/5 255/4/5 257/4/5
f 259/3/5 233/3/5 256/3/5
f 259/2/5 256/2/5 258/2/5
f 260/3/5 258/3/5 257/3/5
f 260/3/5 259/3/5 258/3/5
f 261/3/5 259/3/5 260/3/5
f 262/4/5 252/4/5 233/4/5
f 262/3/5 259/3/5 261/3/5
f 262/3/5 233/3/5 259/3/5
f 263/4/5 252/4/5 262/4/5
f 264/4/5 252/4/5 263/4/5
f 265/4/5 252/4/5 264/4/5
f 266/4/5 252/4/5 265/4/5
f 267/4/5 252/4/5 266/4/5
f 268/4/5 252/4/5 267/4/5
f 269/4/5 252/4/5 268/4/5
f 270/4/5 252/4/5 269/4/5
f 271/3/5 253/3/5 252/3/5
f 271/4/5 252/4/5 270/4/5
f 272/3/5 253/3/5 271/3/5
f 273/4/5 261/4/5 260/4/5
f 274/3/5 262/3/5 261/3/5
f 274/4/5 261/4/5 273/4/5
f 274/3/5 263/3/5 262/3/5
f 275/4/5 264/4/5 263/4/5
f 275/3/5 263/3/5 274/3/5
f 276/3/5 265/3/5 264/3/5
f 276/4/5 264/4/5 275/4/5
f 277/4/5 266/4/5 265/4/5
f 277/3/5 265/3/5 276/3/5
f 278/3/5 267/3/5 266/3/5
f 278/4/5 266/4/5 277/4/5
f 279/4/5 268/4/5 267/4/5
f 279/3/5 267/3/5 278/3/5
f 280/3/5 269/3/5 268/3/5
f 280/4/5 268/4/5 279/4/5
f 281/4/5 270/4/5 269/4/5
f 281/3/5 269/3/5 280/3/5
f 282/3/5 271/3/5 270/3/5
f 282/4/5 270/4/5 281/4/5
f 283/4/5 272/4/5 271/4/5
f 283/3/5 271/3/5 282/3/5
f 284/4/5 272/4/5 283/4/5
f 288/4/5 286/4/5 285/4/5
f 289/2/5 287/2/5 286/2/5
f 289/4/5 286/4/5 288/4/5
f 290/2/5 287/2/5 289/2/5
f 293/5/5 292/5/5 291/5/5
f 294/5/5 292/5/5 293/5/5
f 295/5/5 293/5/5 291/5/5
f 296/5/5 292/5/5 294/5/5
f 297/5/5 295/5/5 291/5/5
f 297/5/5 296/5/5 295/5/5
f 298/5/5 292/5/5 296/5/5
f 298/5/5 296/5/5 297/5/5
f 299/4/6 300/4/6 311/4/6
f 300/3/6 301/3/6 312/3/6
f 311/4/6 300/4/6 312/4/6
f 301/4/6 302/4/6 313/4/6
f 312/3/6 301/3/6 313/3/6
f 302/3/6 303/3/6 314/3/6
f 313/4/6 302/4/6 314/4/6
f 303/4/6 304/4/6 315/4/6
f 314/3/6 303/3/6 315/3/6
f 304/3/6 305/3/6 316/3/6
f 315/4/6 304/4/6 316/4/6
f 305/4/6 306/4/6 317/4/6
f 316/3/6 305/3/6 317/3/6
f 306/3/6 307/3/6 318/3/6
f 317/4/6 306/4/6 318/4/6
f 307/4/6 308/4/6 319/4/6
f 318/3/6 307/3/6 319/3/6
f 308/3/6 309/3/6 320/3/6
f 319/4/6 308/4/6 320/4/6
f 309/4/6 310/4/6 321/4/6
f 320/3/6 309/3/6 321/3/6
f 321/4/6 310/4/6 322/4/6
f 311/3/6 312/3/6 323/3/6
f 323/3/6 312/3/6 324/3/6
f 323/4/6 324/4/6 325/4/6
f 325/4/6 324/4/6 326/4/6
f 321/3/6 322/3/6 327/3/6
f 327/3/6 322/3/6 328/3/6
f 327/4/6 328/4/6 329/4/6
f 329/4/6 328/4/6 330/4/6
f 325/3/6 326/3/6 331/3/6
f 331/3/6 326/3/6 332/3/6
f 331/4/6 332/4/6 333/4/6
f 333/4/6 332/4/6 334/4/6
f 333/3/6 334/3/6 335/3/6
f 335/3/6 334/3/6 336/3/6
f 329/3/6 330/3/6 345/3/6
f 345/3/6 330/3/6 346/3/6
f 335/4/6 336/4/6 347/4/6
f 336/3/6 337/3/6 348/3/6
f 347/4/6 336/4/6 348/4/6
f 337/4/6 338/4/6 349/4/6
f 348/3/6 337/3/6 349/3/6
f 338/3/6 339/3/6 350/3/6
f 349/4/6 338/4/6 350/4/6
f 339/4/6 340/4/6 351/4/6
f 350/3/6 339/3/6 351/3/6
f 340/3/6 341/3/6 352/3/6
f 351/4/6 340/4/6 352/4/6
f 341/4/6 342/4/6 353/4/6
f 352/3/6 341/3/6 353/3/6
f 342/3/6 343/3/6 354/3/6
f 353/4/6 342/4/6 354/4/6
f 343/4/6 344/4/6 355/4/6
f 354/3/6 343/3/6 355/3/6
f 344/3/6 345/3/6 356/3/6
f 355/4/6 344/4/6 356/4/6
f 345/4/6 346/4/6 357/4/6
f 356/3/6 345/3/6 357/3/6
f 357/4/6 346/4/6 358/4/6
f 359/5/6 360/5/6 361/5/6
f 361/5/6 360/5/6 362/5/6
f 362/5/6 360/5/6 363/5/6
f 363/5/6 360/5/6 364/5/6
f 364/5/6 360/5/6 365/5/6
f 365/5/6 360/5/6 366/5/6
f 366/5/6 360/5/6 367/5/6
f 367/5/6 360/5/6 368/5/6
f 359/5/6 361/5/6 369/5/6
f 362/5/6 363/5/6 370/5/6
f 370/5/6 363/5/6 371/5/6
f 364/5/6 365/5/6 372/5/6
f 372/5/6 365/5/6 373/5/6
f 366/5/6 367/5/6 374/5/6
f 374/5/6 367/5/6 375/5/6
f 368/5/6 360/5/6 376/5/6
f 374/5/6 375/5/6 377/5/6
f 375/5/6 376/5/6 377/5/6
f 372/5/6 373/5/6 377/5/6
f 359/5/6 369/5/6 377/5/6
f 373/5/6 374/5/6 377/5/6
f 370/5/6 371/5/6 377/5/6
f 371/5/6 372/5/6 377/5/6
f 369/5/6 370/5/6 377/5/6
f 376/5/6 360/5/6 378/5/6
f 377/5/6 376/5/6 378/5/6
f 379/6/6 380/6/6 387/6/6
f 387/6/6 380/6/6 388/6/6
f 381/6/6 382/6/6 389/6/6
f 389/6/6 382/6/6 390/6/6
f 383/6/6 384/6/6 391/6/6
f 391/6/6 384/6/6 392/6/6
f 385/6/6 386/6/6 393/6/6
f 393/6/6 386/6/6 394/6/6
